<svg width="61" height="60" viewBox="0 0 61 60" fill="none" xmlns="http://www.w3.org/2000/svg">
	<path d="M51.68 8.74667C45.8467 2.94333 38.72 0 30.5 0C22.2033 0 15.0567 2.94667 9.25667 8.75C3.44667 14.5533 0.5 21.7067 0.5 30C0.5 38.2167 3.44333 45.3433 9.24667 51.18C15.05 57.0333 22.2 60 30.5 60C38.7233 60 45.85 57.0333 51.6867 51.19C57.5367 45.3467 60.5 38.2167 60.5 30C60.5 21.7067 57.5333 14.5533 51.68 8.74667ZM46.9733 46.4767C43.1833 50.2733 38.8533 52.4367 33.8333 53.0933V36.6667H40.5V30H33.8333V25.3333C33.8333 25.0704 33.8852 24.8101 33.9859 24.5672C34.0866 24.3243 34.2342 24.1037 34.4203 23.9179C34.6064 23.7322 34.8272 23.5849 35.0703 23.4846C35.3133 23.3843 35.5737 23.3329 35.8367 23.3333H40.5V16.6667H35.8433C33.37 16.6667 31.3067 17.5767 29.6533 19.4067C28 21.23 27.1667 23.4567 27.1667 26.1V30H20.5V36.6667H27.1667V53.1C22.0933 52.45 17.7467 50.2833 13.9767 46.4867C9.39333 41.8733 7.16667 36.48 7.16667 30C7.16667 23.4467 9.39 18.04 13.9733 13.4667C18.54 8.89 23.9467 6.66667 30.5 6.66667C36.9833 6.66667 42.3733 8.89333 46.9833 13.4767C51.5933 18.05 53.8333 23.4567 53.8333 30C53.8333 36.47 51.59 41.8633 46.9733 46.4767Z" fill="#222" />
</svg>
