<svg width="61" height="60" viewBox="0 0 61 60" fill="none" xmlns="http://www.w3.org/2000/svg">
	<path d="M17.9 0H43.1C52.7 0 60.5 7.8 60.5 17.4V42.6C60.5 47.2148 58.6668 51.6405 55.4037 54.9037C52.1405 58.1668 47.7148 60 43.1 60H17.9C8.3 60 0.5 52.2 0.5 42.6V17.4C0.5 12.7852 2.33321 8.35948 5.59634 5.09634C8.85948 1.83321 13.2852 0 17.9 0ZM17.3 6C14.4357 6 11.6886 7.13785 9.66325 9.16325C7.63785 11.1886 6.5 13.9357 6.5 16.8V43.2C6.5 49.17 11.33 54 17.3 54H43.7C46.5643 54 49.3114 52.8621 51.3368 50.8368C53.3621 48.8114 54.5 46.0643 54.5 43.2V16.8C54.5 10.83 49.67 6 43.7 6H17.3ZM46.25 10.5C47.2446 10.5 48.1984 10.8951 48.9017 11.5983C49.6049 12.3016 50 13.2554 50 14.25C50 15.2446 49.6049 16.1984 48.9017 16.9016C48.1984 17.6049 47.2446 18 46.25 18C45.2554 18 44.3016 17.6049 43.5983 16.9016C42.8951 16.1984 42.5 15.2446 42.5 14.25C42.5 13.2554 42.8951 12.3016 43.5983 11.5983C44.3016 10.8951 45.2554 10.5 46.25 10.5ZM30.5 15C34.4782 15 38.2936 16.5804 41.1066 19.3934C43.9196 22.2064 45.5 26.0218 45.5 30C45.5 33.9782 43.9196 37.7936 41.1066 40.6066C38.2936 43.4196 34.4782 45 30.5 45C26.5218 45 22.7064 43.4196 19.8934 40.6066C17.0804 37.7936 15.5 33.9782 15.5 30C15.5 26.0218 17.0804 22.2064 19.8934 19.3934C22.7064 16.5804 26.5218 15 30.5 15ZM30.5 21C28.1131 21 25.8239 21.9482 24.136 23.636C22.4482 25.3239 21.5 27.6131 21.5 30C21.5 32.3869 22.4482 34.6761 24.136 36.364C25.8239 38.0518 28.1131 39 30.5 39C32.8869 39 35.1761 38.0518 36.864 36.364C38.5518 34.6761 39.5 32.3869 39.5 30C39.5 27.6131 38.5518 25.3239 36.864 23.636C35.1761 21.9482 32.8869 21 30.5 21Z" fill="#222" />
</svg>
